<svg width="42.8" height="36" xmlns="http://www.w3.org/2000/svg">
 <!-- Created with Method Draw - http://github.com/duopixel/Method-Draw/ -->
 <defs>
  <filter id="svg_37_blur">
   <feGaussianBlur stdDeviation="0" in="SourceGraphic"/>
  </filter>
  <filter id="svg_44_blur">
   <feGaussianBlur stdDeviation="0.1" in="SourceGraphic"/>
  </filter>
 </defs>
 <g>
  <title>background</title>
  <rect fill="none" id="canvas_background" height="38" width="44.8" y="-1" x="-1"/>
  <g display="none" overflow="visible" y="0" x="0" height="100%" width="100%" id="canvasGrid">
   <rect fill="url(#gridpattern)" stroke-width="0" y="0" x="0" height="100%" width="100%"/>
  </g>
 </g>
 <g>
  <title>Layer 1</title>
  <g filter="url(#svg_44_blur)" id="svg_44">
   <path stroke="#fff" id="svg_38" d="m23.999721,40.374805" fill-opacity="null" stroke-opacity="null" stroke-width="1.5" fill="#333333"/>
   <path stroke="null" id="svg_39" d="m14.461139,10.270071c0,0 0.087945,3.253953 0.087945,3.253953c0,0 -4.045455,0 -4.045455,0c0,0 -4.661067,4.661067 -4.661067,4.661067c0,0 0.087945,1.934783 0.087945,1.934783c0,0 8.970355,-0.263834 8.970355,-0.263834c0,0 -0.087944,10.20158 -0.087944,10.20158c0,0 -12.400198,0.263835 -12.400198,0.263835c0,0 -1.670948,-0.17589 -1.670948,-0.967392c0,-0.791502 0.791502,-1.31917 0.791502,-1.31917c0,0 0.791502,0 0.791502,0c0,0 0.351778,-11.256917 0.351778,-11.256917c0,0 6.771739,-6.683794 6.771739,-6.683794c0,0 5.012846,0.175889 5.012846,0.175889z" stroke-width="1.5" fill="#333333"/>
   <path id="svg_40" d="m6.16598,31.162261l0,0c0,-2.39974 1.945375,-4.345114 4.345115,-4.345114l0,0c1.152396,0 2.257593,0.457787 3.072459,1.272654c0.814868,0.814867 1.272656,1.920064 1.272656,3.07246l0,0c0,2.39974 -1.945375,4.345114 -4.345115,4.345114l0,0c-2.39974,0 -4.345115,-1.945374 -4.345115,-4.345114zm2.172558,0l0,0c0,1.19987 0.972688,2.172558 2.172557,2.172558c1.199871,0 2.172558,-0.972688 2.172558,-2.172558c0,-1.19987 -0.972688,-2.172557 -2.172558,-2.172557l0,0c-1.199869,0 -2.172557,0.972688 -2.172557,2.172557z" stroke-width="1.5" fill="#333333"/>
   <path id="svg_41" d="m28.679814,31.162262l0,0c0,-2.399741 1.945375,-4.345115 4.345115,-4.345115l0,0c1.152396,0 2.257593,0.457787 3.072459,1.272654c0.814868,0.814867 1.272656,1.920064 1.272656,3.072461l0,0c0,2.399739 -1.945375,4.345114 -4.345115,4.345114l0,0c-2.39974,0 -4.345115,-1.945375 -4.345115,-4.345114zm2.172558,0l0,0c0,1.199869 0.972688,2.172557 2.172557,2.172557c1.199871,0 2.172557,-0.972688 2.172557,-2.172557c0,-1.199871 -0.972687,-2.172558 -2.172557,-2.172558l0,0c-1.199869,0 -2.172557,0.972688 -2.172557,2.172558z" stroke-width="1.5" fill="#333333"/>
   <path stroke="null" id="svg_42" d="m27.30106,16.074419c0,0 -0.087945,13.983201 -0.087945,13.983201c0,0 -13.191699,0 -13.191699,0c0,0 0,-28.054898 -0.087944,-28.142291c0.087944,0.087393 0.351778,-0.879447 1.14328,-0.879447c0.791502,0 11.961767,0 11.960475,-0.087945c0.001292,0.087945 -0.000001,8.178854 0,8.09091c0,0.087944 -3.957511,-2.286562 -3.957511,-2.286562c0,0 -2.198616,3.429842 -2.198616,3.429842c0,0 4.221343,2.46245 4.221343,2.46245c0,0 -3.957509,2.286561 -3.957509,2.286561c0,0 2.110672,3.341898 2.110672,3.341898" stroke-opacity="null" stroke-width="1.5" fill="#333333"/>
   <path stroke="null" id="svg_43" d="m30.818846,3.938083c0,0 -4.485178,0.087945 -4.485178,0.087945c0,0 0,-2.903506 -0.087943,-2.990118c0.087943,0.086612 15.038793,0.087944 15.038538,0c0.001027,0 0.879445,-0.288355 0.879445,1.14328c0,1.431635 0,26.91121 -0.087943,26.911068c0.087943,0.000142 0.178328,1.055335 -1.407117,1.055335c-1.585445,0 -7.651449,0 -14.774701,-0.087944c0.175624,-4.221345 0.087943,-9.680308 0,-9.761858c0,0.077956 5.100788,0.087944 5.10079,0c0.000757,0 -0.000002,-4.222241 0,-4.309288c0,0.087028 3.42984,2.374505 3.42984,2.374505c0,0 2.550396,-3.781621 2.550396,-3.781621c0,0 -3.429842,-2.374505 -3.429842,-2.374505c0,0 3.078063,-2.022728 3.078063,-2.022728c0,0 -2.198617,-3.429841 -2.28656,-3.517786c0.087943,0.087945 -3.341899,2.022727 -3.341899,2.022727c0,0 -0.175889,-4.749012 -0.175889,-4.749012z" stroke-opacity="null" stroke-width="1.5" fill="#333333"/>
  </g>
  <path stroke="#000" id="svg_3" d="m50.749722,67.499775" stroke-width="1.5" fill="#fff"/>
  <path stroke="#000" id="svg_12" d="m69.49972,65.999776" fill-opacity="null" stroke-opacity="null" stroke-width="1.5" fill="#fff"/>
  <g stroke="null" filter="url(#svg_37_blur)" id="svg_37">
   <path stroke="#fff" id="svg_9" d="m23.374727,39.874809" fill-opacity="null" stroke-opacity="null" stroke-width="1.5" fill="#666666"/>
   <path stroke="null" id="svg_29" d="m13.836145,9.770076c0,0 0.087945,3.253953 0.087945,3.253953c0,0 -4.045455,0 -4.045455,0c0,0 -4.661067,4.661067 -4.661067,4.661067c0,0 0.087945,1.934783 0.087945,1.934783c0,0 8.970356,-0.263834 8.970356,-0.263834c0,0 -0.087945,10.20158 -0.087945,10.20158c0,0 -12.400197,0.263834 -12.400197,0.263834c0,0 -1.670949,-0.17589 -1.670949,-0.967392c0,-0.791502 0.791502,-1.31917 0.791502,-1.31917c0,0 0.791502,0 0.791502,0c0,0 0.351779,-11.256917 0.351779,-11.256917c0,0 6.771739,-6.683794 6.771739,-6.683794c0,0 5.012846,0.175889 5.012846,0.175889z" stroke-width="1.5" fill="#666666"/>
   <path stroke="null" id="svg_33" d="m5.540986,30.662266l0,0c0,-2.39974 1.945374,-4.345115 4.345115,-4.345115l0,0c1.152396,0 2.257593,0.457787 3.072459,1.272654c0.814867,0.814867 1.272655,1.920064 1.272655,3.07246l0,0c0,2.39974 -1.945374,4.345114 -4.345115,4.345114l0,0c-2.39974,0 -4.345115,-1.945374 -4.345115,-4.345114zm2.172557,0l0,0c0,1.19987 0.972688,2.172557 2.172557,2.172557c1.199871,0 2.172557,-0.972688 2.172557,-2.172557c0,-1.19987 -0.972688,-2.172557 -2.172557,-2.172557l0,0c-1.19987,0 -2.172557,0.972688 -2.172557,2.172557z" stroke-width="1.5" fill="#666666"/>
   <path stroke="null" id="svg_34" d="m28.05482,30.662266l0,0c0,-2.39974 1.945374,-4.345115 4.345115,-4.345115l0,0c1.152396,0 2.257593,0.457787 3.072459,1.272654c0.814867,0.814867 1.272655,1.920064 1.272655,3.07246l0,0c0,2.39974 -1.945374,4.345114 -4.345115,4.345114l0,0c-2.39974,0 -4.345115,-1.945374 -4.345115,-4.345114zm2.172557,0l0,0c0,1.19987 0.972688,2.172557 2.172557,2.172557c1.199871,0 2.172557,-0.972688 2.172557,-2.172557c0,-1.19987 -0.972688,-2.172557 -2.172557,-2.172557l0,0c-1.19987,0 -2.172557,0.972688 -2.172557,2.172557z" stroke-width="1.5" fill="#666666"/>
   <path stroke="null" id="svg_30" d="m26.676066,15.574423c0,0 -0.087945,13.983201 -0.087945,13.983201c0,0 -13.191699,0 -13.191699,0c0,0 0,-28.054899 -0.087944,-28.142292c0.087944,0.087393 0.351778,-0.879447 1.143279,-0.879447c0.791502,0 11.961767,0 11.960475,-0.087944c0.001292,0.087944 -0.000001,8.178853 0,8.090909c0,0.087944 -3.957511,-2.286562 -3.957511,-2.286562c0,0 -2.198617,3.429842 -2.198617,3.429842c0,0 4.221344,2.462451 4.221344,2.462451c0,0 -3.95751,2.286561 -3.95751,2.286561c0,0 2.110672,3.341897 2.110672,3.341897" stroke-opacity="null" stroke-width="1.5" fill="#666666"/>
   <path stroke="null" id="svg_32" d="m30.193852,3.438088c0,0 -4.485178,0.087945 -4.485178,0.087945c0,0 0,-2.903506 -0.087943,-2.990118c0.087943,0.086612 15.038793,0.087944 15.038538,0c0.001027,0 0.879445,-0.288355 0.879445,1.14328c0,1.431635 0,26.91121 -0.087943,26.911068c0.087943,0.000142 0.178328,1.055335 -1.407117,1.055335c-1.585445,0 -7.651449,0 -14.774702,-0.087944c0.175625,-4.221345 0.087943,-9.680308 0,-9.761858c0,0.077955 5.100789,0.087944 5.10079,0c0.000757,0 -0.000002,-4.222242 0,-4.309288c0,0.087028 3.42984,2.374505 3.42984,2.374505c0,0 2.550395,-3.78162 2.550395,-3.78162c0,0 -3.429842,-2.374506 -3.429842,-2.374506c0,0 3.078063,-2.022727 3.078063,-2.022727c0,0 -2.198617,-3.429842 -2.28656,-3.517786c0.087943,0.087944 -3.341899,2.022727 -3.341899,2.022727c0,0 -0.175889,-4.749012 -0.175889,-4.749012z" stroke-opacity="null" stroke-width="1.5" fill="#666666"/>
  </g>
 </g>
</svg>