<svg version="1.1" width="24" height="21" xmlns="http://www.w3.org/2000/svg" xmlns:xlink="http://www.w3.org/1999/xlink" xml:space="preserve" class="iconAmb">

 <g>
   <defs>
     <!--<style type="text/css"><![CDATA[
      .fill-active path { fill: #ffffff; }
      .fill-inactive path { fill: blue; }
    ]]></style>-->
      <filter id="svg_30">
        <feGaussianBlur stdDeviation="0"/>
      </filter>
    </defs>
  <g transform="matrix(0.5635933240519266,0,0,0.5635933240519266,-34.651785079960355,32.56982343533639) " id="iconAmbulance" filter="url(#svg_30)" stroke="null">
   <path fill="#fff" stroke-width="1.5" stroke-opacity="null" fill-opacity="null" d="m85.166491,-17.485859" id="svg_36" stroke="#fff"/>
   <path fill="#fff" stroke-width="1.5" d="m75.627911,-47.590589c0,0 0.08794,3.25395 0.08794,3.25395c0,0 -4.04546,0 -4.04546,0c0,0 -4.66106,4.66107 -4.66106,4.66107c0,0 0.08794,1.93478 0.08794,1.93478c0,0 8.97036,-0.26384 8.97036,-0.26384c0,0 -0.08795,10.20158 -0.08795,10.20158c0,0 -12.40019,0.26384 -12.40019,0.26384c0,0 -1.67095,-0.17589 -1.67095,-0.96739c0,-0.79151 0.7915,-1.31917 0.7915,-1.31917c0,0 0.7915,0 0.7915,0c0,0 0.35178,-11.25692 0.35178,-11.25692c0,0 6.77174,-6.68379 6.77174,-6.68379c0,0 5.01285,0.17588 5.01285,0.17588l0,0.00001z" id="svg_35" stroke="null"/>
   <path fill="#fff" stroke-width="1.5" d="m67.332751,-26.698399l0,0c0,-2.39974 1.94537,-4.34512 4.34511,-4.34512l0,0c1.1524,0 2.25759,0.45779 3.07246,1.27265c0.81487,0.81487 1.27266,1.92007 1.27266,3.07246l0,0c0,2.39974 -1.94538,4.34512 -4.34512,4.34512l0,0c-2.39974,0 -4.34511,-1.94538 -4.34511,-4.34511zm2.17255,0l0,0c0,1.19987 0.97269,2.17255 2.17256,2.17255c1.19987,0 2.17256,-0.97269 2.17256,-2.17255c0,-1.19987 -0.97269,-2.17256 -2.17256,-2.17256l0,0c-1.19987,0 -2.17256,0.97269 -2.17256,2.17256z" id="svg_34" stroke="null"/>
   <path fill="#fff" stroke-width="1.5" d="m89.846581,-26.698399l0,0c0,-2.39974 1.94537,-4.34512 4.34511,-4.34512l0,0c1.1524,0 2.2576,0.45779 3.07246,1.27265c0.81487,0.81487 1.27266,1.92007 1.27266,3.07246l0,0c0,2.39974 -1.94537,4.34512 -4.34512,4.34512l0,0c-2.39974,0 -4.34511,-1.94538 -4.34511,-4.34511zm2.17256,0l0,0c0,1.19987 0.97269,2.17255 2.17255,2.17255c1.19988,0 2.17256,-0.97269 2.17256,-2.17255c0,-1.19987 -0.97269,-2.17256 -2.17256,-2.17256l0,0c-1.19987,0 -2.17255,0.97269 -2.17255,2.17256z" id="svg_33" stroke="null"/>
   <path fill="#fff" stroke-width="1.5" stroke-opacity="null" d="m88.467831,-41.786249c0,0 -0.08795,13.9832 -0.08795,13.9832c0,0 -13.1917,0 -13.1917,0c0,0 0,-28.0549 -0.08794,-28.14229c0.08794,0.08739 0.35178,-0.87945 1.14328,-0.87945c0.7915,0 11.96176,0 11.96047,-0.08794c0.00129,0.08794 0,8.17885 0,8.09091c0,0.08794 -3.95751,-2.28656 -3.95751,-2.28656c0,0 -2.19862,3.42984 -2.19862,3.42984c0,0 4.22135,2.46245 4.22135,2.46245c0,0 -3.95751,2.28656 -3.95751,2.28656c0,0 2.11067,3.3419 2.11067,3.3419" id="svg_32" stroke="null"/>
   <path fill="#fff" stroke-width="1.5" stroke-opacity="null" d="m91.985611,-53.922579c0,0 -4.48518,0.08794 -4.48518,0.08794c0,0 0,-2.9035 -0.08794,-2.99011c0.08794,0.08661 15.03879,0.08794 15.03854,0c0.00103,0 0.87944,-0.28836 0.87944,1.14328c0,1.43163 0,26.91121 -0.08794,26.91106c0.08794,0.00015 0.17833,1.05534 -1.40712,1.05534c-1.58544,0 -7.65145,0 -14.7747,-0.08795c0.17563,-4.22134 0.08794,-9.6803 0,-9.76185c0,0.07795 5.10079,0.08794 5.10079,0c0.00076,0 0,-4.22225 0,-4.30929c0,0.08703 3.42984,2.3745 3.42984,2.3745c0,0 2.5504,-3.78162 2.5504,-3.78162c0,0 -3.42984,-2.3745 -3.42984,-2.3745c0,0 3.07806,-2.02273 3.07806,-2.02273c0,0 -2.19862,-3.42984 -2.28656,-3.51779c0.08794,0.08795 -3.3419,2.02273 -3.3419,2.02273c0,0 -0.17589,-4.74901 -0.17589,-4.74901z" id="svg_31" stroke="null"/>
  </g>
 </g>
</svg>

