<svg width="29" height="22" xmlns="http://www.w3.org/2000/svg">
 <!-- Created with Method Draw - http://github.com/duopixel/Method-Draw/ -->
 <g>
  <title>background</title>
  <rect fill="none" id="canvas_background" height="24" width="31" y="-1" x="-1"/>
  <g display="none" id="canvasGrid">
   <rect fill="url(#gridpattern)" stroke-width="0" y="0" x="0" height="100%" width="100%" id="svg_1"/>
  </g>
 </g>
 <g>
  <title>Layer 1</title>
  <!-- Created with Method Draw - http://github.com/duopixel/Method-Draw/ -->
  <g id="svg_21" stroke="null">
   <g transform="matrix(1.2224643973530689,0,0,1.1254508514037878,168.18188067665574,28.94706910953016) " id="svg_20" stroke="null">
    <title fill="#ffffff">Layer 1</title>
    <!-- Created with Method Draw - http://github.com/duopixel/Method-Draw/ -->
    <defs fill="#ffffff">
     <filter fill="#ffffff" id="svg_12">
      <feGaussianBlur fill="#ffffff" stdDeviation="0"/>
     </filter>
    </defs>
    <g filter="url(#svg_12)" id="svg_11" transform="matrix(0.5635933240519266,0,0,0.5635933240519266,-34.651785079960355,32.56982343533639) " stroke="null">
     <path id="svg_18" d="m-159.02622,-63.79883" fill-opacity="null" stroke-opacity="null" stroke-width="1.5" fill="#ffffff" stroke="null"/>
     <path id="svg_17" d="m-168.5648,-93.90355c0,0 0.08794,3.25395 0.08794,3.25395c0,0 -4.04546,0 -4.04546,0c0,0 -4.66106,4.66107 -4.66106,4.66107c0,0 0.08794,1.93478 0.08794,1.93478c0,0 8.97036,-0.26384 8.97036,-0.26384c0,0 -0.08795,10.20157 -0.08795,10.20157c0,0 -12.40019,0.26384 -12.40019,0.26384c0,0 -1.67095,-0.17588 -1.67095,-0.96738c0,-0.79151 0.7915,-1.31917 0.7915,-1.31917c0,0 0.7915,0 0.7915,0c0,0 0.35178,-11.25693 0.35178,-11.25693c0,0 6.77174,-6.68379 6.77174,-6.68379c0,0 5.01285,0.17588 5.01285,0.17588l0,0.00002z" stroke-width="1.5" fill="#ffffff" stroke="null"/>
     <path id="svg_16" d="m-176.85996,-73.01136l0,0c0,-2.39974 1.94537,-4.34512 4.34511,-4.34512l0,0c1.1524,0 2.25759,0.45779 3.07246,1.27265c0.81487,0.81487 1.27266,1.92007 1.27266,3.07246l0,0c0,2.39974 -1.94538,4.34512 -4.34512,4.34512l0,0c-2.39974,0 -4.34511,-1.94538 -4.34511,-4.34511zm2.17255,0l0,0c0,1.19987 0.97269,2.17255 2.17256,2.17255c1.19987,0 2.17256,-0.97269 2.17256,-2.17255c0,-1.19988 -0.97269,-2.17257 -2.17256,-2.17257l0,0c-1.19987,0 -2.17256,0.97269 -2.17256,2.17257z" stroke-width="1.5" fill="#ffffff" stroke="null"/>
     <path id="svg_15" d="m-154.34613,-73.01136l0,0c0,-2.39974 1.94537,-4.34512 4.34511,-4.34512l0,0c1.1524,0 2.2576,0.45779 3.07246,1.27265c0.81487,0.81487 1.27266,1.92007 1.27266,3.07246l0,0c0,2.39974 -1.94537,4.34512 -4.34512,4.34512l0,0c-2.39974,0 -4.34511,-1.94538 -4.34511,-4.34511zm2.17256,0l0,0c0,1.19987 0.97269,2.17255 2.17255,2.17255c1.19988,0 2.17256,-0.97269 2.17256,-2.17255c0,-1.19988 -0.97269,-2.17257 -2.17256,-2.17257l0,0c-1.19987,0 -2.17255,0.97269 -2.17255,2.17257z" stroke-width="1.5" fill="#ffffff" stroke="null"/>
     <path id="svg_14" d="m-155.72488,-88.09922c0,0 -0.08795,13.9832 -0.08795,13.9832c0,0 -13.1917,0 -13.1917,0c0,0 0,-28.0549 -0.08794,-28.14229c0.08794,0.08739 0.35178,-0.87945 1.14328,-0.87945c0.7915,0 11.96176,0 11.96047,-0.08794c0.00129,0.08794 0,8.17885 0,8.09091c0,0.08794 -3.95751,-2.28656 -3.95751,-2.28656c0,0 -2.19862,3.42984 -2.19862,3.42984c0,0 4.22135,2.46245 4.22135,2.46245c0,0 -3.95751,2.28656 -3.95751,2.28656c0,0 2.11067,3.3419 2.11067,3.3419" stroke-opacity="null" stroke-width="1.5" fill="#ffffff" stroke="null"/>
     <path id="svg_13" d="m-152.2071,-100.23555c0,0 -4.48518,0.08795 -4.48518,0.08795c0,0 0,-2.9035 -0.08794,-2.99012c0.08794,0.08661 15.03879,0.08795 15.03854,0c0.00103,0 0.87944,-0.28835 0.87944,1.14329c0,1.43163 0,26.91121 -0.08794,26.91106c0.08794,0.00015 0.17833,1.05534 -1.40712,1.05534c-1.58544,0 -7.65145,0 -14.7747,-0.08795c0.17563,-4.22134 0.08794,-9.6803 0,-9.76185c0,0.07795 5.10079,0.08794 5.10079,0c0.00076,0 0,-4.22225 0,-4.30929c0,0.08703 3.42984,2.3745 3.42984,2.3745c0,0 2.5504,-3.78163 2.5504,-3.78163c0,0 -3.42984,-2.37449 -3.42984,-2.37449c0,0 3.07806,-2.02273 3.07806,-2.02273c0,0 -2.19862,-3.42984 -2.28656,-3.51779c0.08794,0.08795 -3.3419,2.02272 -3.3419,2.02272c0,0 -0.17589,-4.74901 -0.17589,-4.74901z" stroke-opacity="null" stroke-width="1.5" fill="#ffffff" stroke="null"/>
    </g>
   </g>
  </g>
 </g>
</svg>